<svg xmlns="http://www.w3.org/2000/svg" viewBox="0 0 64 64"><circle cx="32" cy="32" r="28" fill="none" stroke="var(--color-gold)" stroke-width="1.5"/><circle cx="32" cy="32" r="22" fill="none" stroke="var(--color-green-deep)" stroke-width="0.75"/><g fill="var(--color-gold)"><circle cx="32" cy="12" r="1.5"/><circle cx="32" cy="24" r="1.5"/><circle cx="32" cy="40" r="1.5"/><circle cx="32" cy="52" r="1.5"/><circle cx="52" cy="32" r="1.5"/><circle cx="12" cy="32" r="1.5"/><circle cx="45" cy="19" r="1.5"/><circle cx="19" cy="19" r="1.5"/><circle cx="45" cy="45" r="1.5"/><circle cx="19" cy="45" r="1.5"/></g><circle cx="32" cy="22" r="3.5" fill="var(--color-gold)"/><g stroke="var(--color-gold)" stroke-width="0.75" fill="none"><path d="M32 24 L32 22 M32 22 L32 18 M32 18 Q42 14 54 22"/><path d="M32 24 L32 22 M32 22 L32 18 M32 18 Q22 14 10 22"/></g><path d="M22 44 Q32 36 42 44 L40 49 Q32 44 24 49 Z" fill="var(--color-gold)"/></svg>